<svg width="55" height="55" viewBox="0 0 55 55" fill="none" xmlns="http://www.w3.org/2000/svg">
<rect x="41.25" y="20.625" width="13.75" height="13.75" fill="#FF0000"/>
<rect x="20.625" width="13.75" height="13.75" fill="#FF8A01"/>
<rect width="13.75" height="13.75" fill="#FFE600"/>
<rect x="20.625" y="41.25" width="13.75" height="13.75" fill="#2C73DF"/>
<rect y="20.625" width="13.75" height="13.75" fill="#2BC71E"/>
<rect y="41.25" width="13.75" height="13.75" fill="#0AE9F8"/>
<rect x="41.25" width="13.75" height="13.75" fill="#F25700"/>
<rect x="41.25" y="41.25" width="13.75" height="13.75" fill="#E36AE6"/>
<path d="M19.3447 23.4053C19.7679 23.4307 20.1234 23.4518 20.4111 23.4688C20.7074 23.4772 20.9528 23.4857 21.1475 23.4941C21.3675 23.5026 21.5537 23.5026 21.7061 23.4941C21.8584 23.4857 22.0658 23.4645 22.3281 23.4307C22.5482 23.4053 22.8402 23.3672 23.2041 23.3164C23.5765 23.2572 24.0378 23.181 24.5879 23.0879C24.3932 23.2826 24.2409 23.4603 24.1309 23.6211C24.0293 23.7734 23.9489 23.9046 23.8896 24.0146C23.8219 24.1501 23.7754 24.2643 23.75 24.3574C23.7331 24.4421 23.75 24.6536 23.8008 24.9922C23.8516 25.3307 23.9235 25.7327 24.0166 26.1982C24.1097 26.6553 24.2113 27.1462 24.3213 27.6709C24.4313 28.1872 24.5413 28.6738 24.6514 29.1309C24.7614 29.5794 24.8587 29.9645 24.9434 30.2861C25.0365 30.5993 25.1042 30.7855 25.1465 30.8447C25.2734 31.0225 25.3538 31.141 25.3877 31.2002C25.4215 31.251 25.4808 31.2975 25.5654 31.3398C25.5993 31.3568 25.6543 31.3822 25.7305 31.416C25.7982 31.4499 25.887 31.4922 25.9971 31.543C26.1156 31.5938 26.2637 31.653 26.4414 31.7207C26.1113 31.7376 25.8278 31.7503 25.5908 31.7588C25.3538 31.7588 25.1592 31.763 25.0068 31.7715C24.8291 31.7799 24.6768 31.7884 24.5498 31.7969C24.4229 31.7969 24.2705 31.8053 24.0928 31.8223C23.9404 31.8392 23.7415 31.8561 23.4961 31.873C23.2591 31.89 22.9798 31.9069 22.6582 31.9238C22.8275 31.8053 22.9629 31.6995 23.0645 31.6064C23.1745 31.5049 23.2591 31.4202 23.3184 31.3525C23.3861 31.2679 23.4326 31.1917 23.458 31.124C23.4749 31.0479 23.4876 30.9336 23.4961 30.7812C23.5046 30.6458 23.5046 30.4681 23.4961 30.248C23.4876 30.0195 23.4665 29.7233 23.4326 29.3594L20.0938 29.7021C20.0091 29.846 19.9456 29.973 19.9033 30.083C19.861 30.1846 19.8314 30.2734 19.8145 30.3496C19.7891 30.4427 19.7806 30.5189 19.7891 30.5781C19.806 30.6458 19.8356 30.7262 19.8779 30.8193C19.9202 30.904 19.9795 31.0055 20.0557 31.124C20.1403 31.234 20.263 31.3652 20.4238 31.5176C20.2122 31.5091 19.9964 31.5049 19.7764 31.5049C19.5563 31.5049 19.3532 31.5091 19.167 31.5176C18.9469 31.526 18.7311 31.5345 18.5195 31.543C18.3079 31.5514 18.0667 31.5641 17.7959 31.5811C17.5674 31.598 17.3008 31.6191 16.9961 31.6445C16.6829 31.6615 16.3486 31.6868 15.9932 31.7207C16.2132 31.6191 16.3994 31.5176 16.5518 31.416C16.7041 31.306 16.8311 31.2044 16.9326 31.1113C17.0511 31.0098 17.1527 30.9124 17.2373 30.8193C17.2965 30.7347 17.415 30.54 17.5928 30.2354C17.7705 29.9222 17.9694 29.554 18.1895 29.1309C18.418 28.7077 18.6549 28.2549 18.9004 27.7725C19.1543 27.29 19.3828 26.8372 19.5859 26.4141C19.7891 25.9824 19.9541 25.61 20.0811 25.2969C20.208 24.9837 20.2715 24.7806 20.2715 24.6875C20.2546 24.5775 20.2122 24.4548 20.1445 24.3193C20.0853 24.2008 19.9922 24.0654 19.8652 23.9131C19.7467 23.7607 19.5732 23.5915 19.3447 23.4053ZM23.2803 28.4199C23.2295 28.1237 23.1829 27.8698 23.1406 27.6582C23.0983 27.4382 23.0645 27.2562 23.0391 27.1123C23.0052 26.943 22.9798 26.7949 22.9629 26.668C22.9375 26.5495 22.9079 26.3971 22.874 26.2109C22.8402 26.0501 22.7979 25.8512 22.7471 25.6143C22.7048 25.3688 22.6497 25.0768 22.582 24.7383C22.0996 25.7031 21.723 26.4521 21.4521 26.9854C21.1898 27.5101 20.9993 27.8952 20.8809 28.1406C20.737 28.4284 20.6566 28.5977 20.6396 28.6484L23.2803 28.4199ZM27.165 30.6035C27.4697 30.5612 27.7067 30.612 27.876 30.7559C28.0537 30.8997 28.1383 31.0986 28.1299 31.3525C28.1214 31.4795 28.096 31.5811 28.0537 31.6572C28.0114 31.7334 27.9521 31.7926 27.876 31.835C27.8083 31.8688 27.7236 31.8984 27.6221 31.9238C27.529 31.9408 27.4189 31.9577 27.292 31.9746C27.165 32 27.0423 31.9958 26.9238 31.9619C26.8053 31.9196 26.6995 31.8604 26.6064 31.7842C26.5133 31.708 26.4372 31.6234 26.3779 31.5303C26.3271 31.4372 26.3018 31.3441 26.3018 31.251C26.3018 31.1494 26.3271 31.0648 26.3779 30.9971C26.4372 30.9209 26.5091 30.8574 26.5938 30.8066C26.6868 30.7474 26.7799 30.7051 26.873 30.6797C26.9746 30.6458 27.0719 30.6204 27.165 30.6035ZM28.1934 22.7324C28.4642 22.7747 28.7096 22.8128 28.9297 22.8467C29.1497 22.8721 29.3402 22.8932 29.501 22.9102C29.6872 22.9355 29.8522 22.9567 29.9961 22.9736C30.1738 22.999 30.4404 22.9694 30.7959 22.8848C31.1514 22.7917 31.5407 22.707 31.9639 22.6309C32.3955 22.5462 32.8356 22.4997 33.2842 22.4912C33.7327 22.4743 34.1432 22.5547 34.5156 22.7324C34.888 22.9102 35.1927 23.0879 35.4297 23.2656C35.6667 23.4434 35.8529 23.6338 35.9883 23.8369C36.1322 24.0316 36.2337 24.2389 36.293 24.459C36.3522 24.679 36.3861 24.9202 36.3945 25.1826C36.3861 25.5719 36.293 25.9486 36.1152 26.3125C36.0391 26.4648 35.9375 26.6257 35.8105 26.7949C35.6921 26.9557 35.5439 27.1123 35.3662 27.2646C35.1885 27.417 34.9769 27.5609 34.7314 27.6963C34.4945 27.8317 34.2152 27.9502 33.8936 28.0518C34.2067 28.1449 34.4648 28.2549 34.668 28.3818C34.8796 28.5088 35.0488 28.6273 35.1758 28.7373C35.3281 28.8727 35.4424 29.0039 35.5186 29.1309C35.6117 29.3086 35.6751 29.4609 35.709 29.5879C35.7428 29.7148 35.764 29.8376 35.7725 29.9561C35.7894 30.0661 35.8105 30.1803 35.8359 30.2988C35.8613 30.4173 35.9163 30.5527 36.001 30.7051C36.0687 30.8236 36.1491 30.9463 36.2422 31.0732C36.3268 31.1833 36.4242 31.3018 36.5342 31.4287C36.6527 31.5557 36.7965 31.6784 36.9658 31.7969C36.7288 31.8053 36.5088 31.8096 36.3057 31.8096C36.111 31.8096 35.9417 31.8096 35.7979 31.8096C35.6286 31.8096 35.4678 31.8053 35.3154 31.7969C35.1631 31.7884 34.9727 31.7842 34.7441 31.7842C34.5495 31.7842 34.2998 31.7842 33.9951 31.7842C33.6989 31.7842 33.3392 31.7884 32.916 31.7969C33.1022 31.653 33.2546 31.5091 33.373 31.3652C33.4915 31.2214 33.5846 31.0902 33.6523 30.9717C33.7285 30.8363 33.7835 30.7051 33.8174 30.5781C33.8597 30.3496 33.8639 30.1126 33.8301 29.8672C33.8047 29.6556 33.737 29.4229 33.627 29.1689C33.5169 28.9066 33.3392 28.6442 33.0938 28.3818C32.8483 28.4242 32.641 28.458 32.4717 28.4834C32.3109 28.5003 32.1712 28.5173 32.0527 28.5342C31.9173 28.5511 31.8073 28.5638 31.7227 28.5723C31.6465 28.5807 31.5618 28.5892 31.4688 28.5977C31.3926 28.6061 31.3079 28.6188 31.2148 28.6357C31.1302 28.6442 31.0498 28.6569 30.9736 28.6738C30.9567 29.0378 30.9567 29.3551 30.9736 29.626C30.9906 29.8883 31.0117 30.1084 31.0371 30.2861C31.071 30.4977 31.109 30.6797 31.1514 30.832C31.1937 30.9844 31.2529 31.1325 31.3291 31.2764C31.3883 31.3949 31.4645 31.5218 31.5576 31.6572C31.6507 31.7842 31.7565 31.89 31.875 31.9746C31.6549 31.9746 31.4434 31.9746 31.2402 31.9746C31.0456 31.9746 30.8678 31.9704 30.707 31.9619C30.5208 31.9619 30.3431 31.9577 30.1738 31.9492C30.0046 31.9408 29.8141 31.9365 29.6025 31.9365C29.4248 31.9365 29.2132 31.9365 28.9678 31.9365C28.7308 31.9365 28.4727 31.9408 28.1934 31.9492C28.4134 31.7207 28.5869 31.526 28.7139 31.3652C28.8408 31.2044 28.9382 31.069 29.0059 30.959C29.082 30.8405 29.1286 30.7389 29.1455 30.6543C29.1624 30.5189 29.1751 30.2777 29.1836 29.9307C29.2005 29.5752 29.2132 29.1689 29.2217 28.7119C29.2301 28.2549 29.2344 27.7767 29.2344 27.2773C29.2344 26.778 29.2301 26.3125 29.2217 25.8809C29.2132 25.4408 29.2048 25.0641 29.1963 24.751C29.1878 24.4378 29.1794 24.2389 29.1709 24.1543C29.1455 24.002 29.0905 23.8496 29.0059 23.6973C28.9382 23.5618 28.8408 23.4095 28.7139 23.2402C28.5869 23.071 28.4134 22.9017 28.1934 22.7324ZM32.9922 27.2012C33.0768 27.1504 33.1488 27.0996 33.208 27.0488C33.2673 26.998 33.318 26.9176 33.3604 26.8076C33.4027 26.6891 33.4365 26.5241 33.4619 26.3125C33.4958 26.1009 33.5339 25.8132 33.5762 25.4492C33.61 25.0853 33.5846 24.7848 33.5 24.5479C33.4238 24.3109 33.318 24.1247 33.1826 23.9893C33.0557 23.8454 32.9118 23.748 32.751 23.6973C32.5986 23.638 32.4632 23.6084 32.3447 23.6084C32.1077 23.6084 31.875 23.6803 31.6465 23.8242C31.418 23.9681 31.2445 24.1628 31.126 24.4082C31.0837 24.5182 31.0456 24.7002 31.0117 24.9541C30.9863 25.1742 30.9694 25.4788 30.9609 25.8682C30.9525 26.2575 30.9652 26.7695 30.999 27.4043C31.3206 27.4551 31.6042 27.4762 31.8496 27.4678C32.0951 27.4508 32.3024 27.4212 32.4717 27.3789C32.6748 27.3366 32.8483 27.2773 32.9922 27.2012Z" fill="#F16565"/>
</svg>
